<svg width="17" height="17" viewBox="0 0 17 17" fill="none" xmlns="http://www.w3.org/2000/svg">
<path d="M8.5 0C3.825 0 0 3.825 0 8.5C0 13.175 3.825 17 8.5 17C13.175 17 17 13.175 17 8.5C17 3.825 13.2175 0 8.5 0ZM12.4107 12.2825C12.2407 12.5368 11.9432 12.6225 11.6875 12.4525C9.69 11.22 7.1825 10.9643 4.20679 11.6443C3.91071 11.7307 3.655 11.5175 3.57 11.2625C3.485 10.9643 3.6975 10.71 3.9525 10.625C7.1825 9.90179 9.9875 10.2 12.1975 11.56C12.495 11.6875 12.5368 12.0268 12.4107 12.2825ZM13.4307 9.945C13.2175 10.2425 12.835 10.37 12.5368 10.1575C10.2425 8.755 6.7575 8.33 4.08 9.18C3.74071 9.265 3.3575 9.095 3.2725 8.755C3.1875 8.415 3.3575 8.03179 3.6975 7.94679C6.8 7.0125 10.625 7.48071 13.26 9.095C13.5157 9.22321 13.6425 9.6475 13.4307 9.945ZM13.5157 7.565C10.795 5.95 6.2475 5.78 3.655 6.58821C3.23 6.715 2.805 6.46 2.6775 6.0775C2.55 5.65179 2.805 5.2275 3.1875 5.09929C6.205 4.20679 11.1775 4.37679 14.3232 6.2475C14.705 6.46 14.8325 6.97 14.62 7.3525C14.4082 7.65071 13.8975 7.77679 13.5157 7.565Z" fill="white"/>
</svg>
