<svg width="18" height="17" viewBox="0 0 18 17" fill="none" xmlns="http://www.w3.org/2000/svg">
<g clip-path="url(#clip0)">
<path d="M9.39384 0.0141667C10.3763 0 11.3513 0.00708333 12.3263 0C12.3863 1.08375 12.7988 2.18875 13.6388 2.95375C14.4788 3.74 15.6638 4.10125 16.8188 4.22167V7.07625C15.7388 7.04083 14.6513 6.82833 13.6688 6.38917C13.2413 6.205 12.8438 5.97125 12.4538 5.73042C12.4463 7.79875 12.4613 9.86708 12.4388 11.9283C12.3788 12.92 12.0338 13.9046 11.4263 14.7192C10.4438 16.0792 8.74134 16.9646 6.99384 16.9929C5.92134 17.0496 4.84884 16.7733 3.93384 16.2633C2.41884 15.4204 1.35384 13.8762 1.19634 12.2188C1.18134 11.8646 1.17384 11.5104 1.18884 11.1633C1.32384 9.8175 2.02884 8.52833 3.12384 7.65C4.36884 6.63 6.10884 6.14125 7.73634 6.43167C7.75134 7.48 7.70634 8.52833 7.70634 9.57667C6.96384 9.35 6.09384 9.41375 5.44134 9.83875C4.96884 10.1292 4.60884 10.5754 4.42134 11.0783C4.26384 11.4396 4.30884 11.8362 4.31634 12.2188C4.49634 13.3804 5.68134 14.3579 6.94134 14.2517C7.78134 14.2446 8.58384 13.7842 9.01884 13.1112C9.16134 12.8775 9.31884 12.6367 9.32634 12.3604C9.40134 11.0925 9.37134 9.83167 9.37884 8.56375C9.38634 5.70917 9.37134 2.86167 9.39384 0.0141667Z" fill="white"/>
</g>
<defs>
<clipPath id="clip0">
<rect width="18" height="17" fill="white"/>
</clipPath>
</defs>
</svg>
