<svg width="17" height="17" viewBox="0 0 17 17" fill="none" xmlns="http://www.w3.org/2000/svg">
<path d="M16.6444 4.70396C16.5484 4.3422 16.359 4.01202 16.0952 3.74648C15.8314 3.48095 15.5025 3.28938 15.1413 3.19096C13.816 2.83325 8.5 2.83325 8.5 2.83325C8.5 2.83325 3.18396 2.83325 1.85796 3.19096C1.497 3.28955 1.16825 3.48119 0.904597 3.74671C0.640943 4.01222 0.451627 4.34231 0.355583 4.70396C0 6.03846 0 8.82221 0 8.82221C0 8.82221 0 11.606 0.355583 12.9405C0.451623 13.3022 0.641024 13.6324 0.904819 13.8979C1.16861 14.1635 1.49754 14.355 1.85867 14.4535C3.18396 14.8112 8.5 14.8112 8.5 14.8112C8.5 14.8112 13.816 14.8112 15.142 14.4535C15.5032 14.3551 15.8322 14.1636 16.096 13.898C16.3598 13.6325 16.5492 13.3023 16.6451 12.9405C17 11.606 17 8.82221 17 8.82221C17 8.82221 17 6.03846 16.6444 4.70396ZM6.76104 11.3495V6.29488L11.2044 8.82221L6.76104 11.3495Z" fill="white"/>
</svg>
